<svg width="125" height="57" viewBox="0 0 125 57" fill="none" xmlns="http://www.w3.org/2000/svg">
<g clip-path="url(#clip0_68_544)">
<path d="M39.0369 0C39.0369 0 54.5408 42.319 25.0016 55.264C25.0016 55.264 42.9665 39.598 33.7736 1.31581C33.7736 1.31581 35.5313 0.496748 39.0369 0ZM29.4016 23.1789C29.5391 16.4638 29.2415 9.74684 28.5104 3.07022C19.235 5.86425 14.0365 9.21066 14.0365 9.21066C14.0365 9.21066 13.7803 16.4829 13.8125 20.7404C13.7945 39.1728 16.0385 48.2041 17.9277 52.5404C19.4476 55.7861 21.5275 56.1287 21.6122 56.1412C21.6977 56.1286 23.778 55.7861 25.3012 52.5342C27.85 46.683 29.2677 36.5317 29.4016 23.1789ZM7.83019 34.288C6.46162 26.4933 6.9203 18.6653 7.39855 13.4408L7.45747 12.7195C5.0151 14.4895 2.67232 16.393 0.439827 18.4213C0.126294 20.5199 -0.0191996 22.6401 0.0047333 24.7618C0.0249785 28.9735 0.636719 33.1616 1.82203 37.2032C3.03291 41.2912 5.07173 45.0866 7.81175 48.3532C12.3151 53.6117 17.0144 54.9762 17.2112 55.0351L17.9839 55.264L17.4542 54.7107C12.5968 49.8647 9.35912 42.9938 7.83019 34.288ZM93.8622 21.4915C92.7873 21.7389 91.6863 21.8551 90.5834 21.8375C90.2132 21.8428 89.8429 21.8284 89.4742 21.7943V13.5967H87.2832V23.246H93.07L93.8622 21.4915ZM67.359 22.1651C66.8466 21.7005 66.4412 21.1302 66.171 20.4935C65.9007 19.8569 65.7719 19.1692 65.7935 18.4779C65.7711 17.7884 65.8996 17.1024 66.17 16.4678C66.4404 15.8332 66.8462 15.2654 67.359 14.804C68.4724 13.92 69.8523 13.4388 71.274 13.4388C72.6957 13.4388 74.0756 13.92 75.189 14.804C75.7015 15.2656 76.1071 15.8335 76.3776 16.4681C76.648 17.1026 76.7768 17.7885 76.7549 18.4779C76.776 19.1691 76.6469 19.8567 76.3766 20.4933C76.1062 21.1299 75.7011 21.7002 75.189 22.1651C74.0721 23.0412 72.6935 23.5173 71.274 23.5173C69.8544 23.5173 68.4759 23.0412 67.359 22.1651ZM68.2705 18.4906C68.2327 19.354 68.5055 20.2024 69.0395 20.8819C69.3059 21.215 69.6473 21.4804 70.0359 21.6563C70.4246 21.8321 70.8493 21.9136 71.2754 21.8938C71.7031 21.9121 72.1292 21.8301 72.5197 21.6544C72.9101 21.4787 73.254 21.2142 73.524 20.8819C74.0464 20.1971 74.313 19.3512 74.2778 18.4906C74.3126 17.6305 74.046 16.7851 73.524 16.1005C73.2435 15.7816 72.898 15.5263 72.5108 15.3519C72.1235 15.1775 71.7034 15.0879 71.2786 15.0892C70.8539 15.0905 70.4343 15.1827 70.0481 15.3595C69.6619 15.5363 69.318 15.7936 69.0395 16.1143C68.5128 16.7919 68.2407 17.6329 68.2705 18.4906ZM61.4935 20.2563L59.2069 13.5967H57.6538L55.5093 20.237L53.2373 13.5967H50.8791L53.6693 21.5246C53.7645 21.8536 53.8977 22.1703 54.0663 22.4684C54.314 22.8007 54.6478 23.0589 55.0317 23.2151C55.1993 23.2907 55.5891 23.4227 56.1941 23.6144L58.2877 17.3396L59.7401 21.6225C59.848 21.9707 60.0057 22.3015 60.2082 22.6045C60.4555 22.8745 60.7614 23.0841 61.1025 23.2173C61.6141 23.3982 62.0026 23.5315 62.268 23.6172L65.6133 13.5967H63.5255L61.4935 20.2563ZM102.324 22.1183C101.25 22.9643 99.7006 23.417 97.7841 23.417C96.9123 23.4296 96.0408 23.3724 95.178 23.246V13.5967C96.0411 13.4736 96.9124 13.4164 97.7841 13.4256C99.4018 13.3586 100.995 13.8368 102.308 14.7836C102.855 15.2256 103.289 15.7909 103.574 16.4331C103.859 17.0753 103.988 17.7761 103.95 18.4779C103.95 19.9958 103.47 21.2263 102.324 22.1183ZM101.584 18.4832C101.617 18.0143 101.549 17.5438 101.384 17.1034C101.22 16.6631 100.963 16.2631 100.631 15.9304C99.8979 15.3372 98.9681 15.0422 98.0271 15.1044C97.8264 15.1044 97.6088 15.1131 97.3718 15.1317V21.8088C97.6088 21.828 97.8264 21.8375 98.0271 21.8375C100.398 21.8375 101.584 20.7194 101.584 18.4832ZM59.361 35.7373L64.9696 42.5446H60.7084L55.2261 35.6483V42.5446H51.7564V27.1934C53.0292 27.0421 54.3107 26.9751 55.5924 26.9929C57.7876 26.9929 59.5812 27.3775 60.6484 28.022C61.294 28.3854 61.8272 28.9194 62.1896 29.5656C62.552 30.2117 62.7297 30.9452 62.7031 31.6856C62.7367 32.6677 62.443 33.6332 61.8681 34.4303C61.2159 35.1522 60.3263 35.6159 59.361 35.7373ZM59.4137 31.7092C59.4137 30.0504 58.0196 29.3583 56.0667 29.3583C55.7857 29.3578 55.505 29.375 55.2261 29.4096V34.1928C55.5045 34.2329 55.7855 34.2518 56.0667 34.2492C58.0196 34.2492 59.4137 33.2812 59.4137 31.7092ZM121.151 27.1934L117.546 33.3813L113.942 27.1934H110.091L115.753 36.5579V42.5444H119.15V36.5579L125.003 27.1934H121.151ZM110.521 37.4116C110.528 37.5269 110.529 37.6474 110.529 37.773C110.529 39.9192 109.428 40.9983 107.67 41.8343C106.394 42.4579 104.684 42.7243 102.565 42.7243C101.27 42.7422 99.9746 42.6822 98.6869 42.5445V27.1934C100.236 27.0547 101.536 27.0921 102.587 27.0921C104.675 27.0921 106.658 27.4678 107.751 28.1177C108.235 28.4353 108.625 28.8758 108.882 29.3941C109.139 29.9123 109.253 30.4896 109.213 31.0667C109.151 32.9874 107.155 33.9166 107.005 33.9231C107.585 34.013 110.37 34.8809 110.521 37.4116ZM101.993 33.1483H103.07C104.827 33.1629 105.98 32.488 105.98 31.2136C105.98 29.7848 104.661 29.2581 102.905 29.2581H101.993V33.1483ZM107.127 37.956C107.127 36.2236 105.631 35.3581 103.423 35.3581C102.985 35.3581 102.263 35.366 101.993 35.3806V40.5527C102.263 40.5673 103.108 40.576 103.545 40.576C106.081 40.576 107.127 39.5869 107.127 37.956ZM75.8633 36.4059C75.8633 38.8083 74.6236 40.233 72.5904 40.233C70.5566 40.233 69.3167 38.7637 69.3167 36.2976V27.1934H65.7916V36.3842C65.7916 40.8415 68.4793 43.1131 72.5466 43.1131C76.6142 43.1131 79.3883 40.8631 79.3883 36.276V27.1934H75.8633V36.4059ZM83.7165 23.246L80.266 18.891V23.246H78.0725V13.5967C78.8523 13.4987 79.6379 13.4551 80.4237 13.4664C81.5082 13.4191 82.5861 13.6576 83.5494 14.158C83.9585 14.3858 84.2974 14.7213 84.5292 15.1281C84.761 15.535 84.8768 15.9975 84.8641 16.4656C84.8864 17.0618 84.7002 17.6471 84.3375 18.1208C83.9623 18.5768 83.4285 18.8741 82.8433 18.9532L86.406 23.246H83.7165ZM82.5734 16.5356C82.5734 15.5616 81.9565 15.0743 80.7225 15.0739C80.5598 15.0739 80.409 15.0791 80.266 15.0892V17.9943C80.4089 18.0029 80.5598 18.0077 80.7225 18.0077C81.9557 18.0077 82.5726 17.517 82.5734 16.5356ZM92.7429 39.9733C92.0217 40.2861 91.244 40.4479 90.4578 40.4488C89.7448 40.4756 89.034 40.3542 88.3704 40.0921C87.7068 39.83 87.1049 39.433 86.6026 38.9262C85.6154 37.8557 85.0683 36.4523 85.0705 34.9961C85.0727 33.5399 85.624 32.1381 86.6144 31.0706C87.1212 30.5525 87.7309 30.1464 88.4043 29.8784C89.0776 29.6104 89.7997 29.4865 90.5239 29.5147C92.0043 29.4814 93.4644 29.8644 94.7379 30.6202V27.916C93.2457 27.2745 91.6293 26.9737 90.0062 27.0355C87.6164 27.0355 85.4521 27.68 83.897 29.1998C83.1417 29.9373 82.5463 30.8224 82.148 31.8C81.7496 32.7776 81.5567 33.8268 81.5813 34.8821C81.5813 37.4649 82.3397 39.3172 83.834 40.6692C85.6025 42.2573 87.8997 43.1287 90.2765 43.1131C92.5607 43.1131 94.7924 42.2534 96.0552 40.9904V35.0742H92.7429V39.9733Z" fill="#2A37E6"/>
</g>
<defs>
<clipPath id="clip0_68_544">
<rect width="125" height="56.1412" fill="white"/>
</clipPath>
</defs>
</svg>
